HIERARCHY
ROOT Hips
{
	OFFSET -0.001795 -0.223333 0.028219
	CHANNELS 6 Xposition Yposition Zposition Zrotation Yrotation Xrotation 
	JOINT LeftUpLeg
	{
		OFFSET 0.069520 -0.091406 -0.006815
		CHANNELS 3 Zrotation Yrotation Xrotation
		JOINT LeftLeg
		{
			OFFSET 0.034277 -0.375199 -0.004496
			CHANNELS 3 Zrotation Yrotation Xrotation
			JOINT LeftFoot
			{
				OFFSET -0.013596 -0.397961 -0.043693
				CHANNELS 3 Zrotation Yrotation Xrotation
				JOINT LeftToe
				{
					OFFSET 0.026358 -0.055791 0.119288
					CHANNELS 3 Zrotation Yrotation Xrotation
					End Site
					{
						OFFSET 0.000000 0.000000 0.000000
					}
				}
			}
		}
	}
	JOINT RightUpLeg
	{
		OFFSET -0.067670 -0.090522 -0.004320
		CHANNELS 3 Zrotation Yrotation Xrotation
		JOINT RightLeg
		{
			OFFSET -0.038290 -0.382569 -0.008850
			CHANNELS 3 Zrotation Yrotation Xrotation
			JOINT RightFoot
			{
				OFFSET 0.015774 -0.398415 -0.042312
				CHANNELS 3 Zrotation Yrotation Xrotation
				JOINT RightToe
				{
					OFFSET -0.025372 -0.048144 0.123348
					CHANNELS 3 Zrotation Yrotation Xrotation
					End Site
					{
						OFFSET 0.000000 0.000000 0.000000
					}
				}
			}
		}
	}
	JOINT Spine
	{
		OFFSET -0.002533 0.108963 -0.026696
		CHANNELS 3 Zrotation Yrotation Xrotation
		JOINT Spine1
		{
			OFFSET 0.005487 0.135180 0.001092
			CHANNELS 3 Zrotation Yrotation Xrotation
			JOINT Spine2
			{
				OFFSET 0.001457 0.052922 0.025425
				CHANNELS 3 Zrotation Yrotation Xrotation
				JOINT Neck
				{
					OFFSET -0.002778 0.213870 -0.042857
					CHANNELS 3 Zrotation Yrotation Xrotation
					JOINT Head
					{
						OFFSET 0.005152 0.064970 0.051349
						CHANNELS 3 Zrotation Yrotation Xrotation
						End Site
						{
							OFFSET 0.000000 0.000000 0.000000
						}
					}
				}
				JOINT LeftShoulder
				{
					OFFSET 0.078845 0.121749 -0.034090
					CHANNELS 3 Zrotation Yrotation Xrotation
					JOINT LeftArm
					{
						OFFSET 0.090977 0.030469 -0.008868
						CHANNELS 3 Zrotation Yrotation Xrotation
						JOINT LeftForeArm
						{
							OFFSET 0.259612 -0.012772 -0.027456
							CHANNELS 3 Zrotation Yrotation Xrotation
							JOINT LeftHand
							{
								OFFSET 0.249234 0.008986 -0.001171
								CHANNELS 3 Zrotation Yrotation Xrotation
								End Site
								{
									OFFSET 0.000000 0.000000 0.000000
								}
							}
						}
					}
				}
				JOINT RightShoulder
				{
					OFFSET -0.081759 0.118833 -0.038615
					CHANNELS 3 Zrotation Yrotation Xrotation
					JOINT RightArm
					{
						OFFSET -0.096012 0.032551 -0.009143
						CHANNELS 3 Zrotation Yrotation Xrotation
						JOINT RightForeArm
						{
							OFFSET -0.253742 -0.013329 -0.021401
							CHANNELS 3 Zrotation Yrotation Xrotation
							JOINT RightHand
							{
								OFFSET -0.255298 0.007772 -0.005559
								CHANNELS 3 Zrotation Yrotation Xrotation
								End Site
								{
									OFFSET 0.000000 0.000000 0.000000
								}
							}
						}
					}
				}
			}
		}
	}
}
MOTION
Frames: 7
Frame Time: 0.050000
0.000000 0.940008 0.000000 0.087104 -3.414456 -4.366727 2.870449 -1.050058 -16.906232 -3.874484 0.605741 18.698663 4.721113 11.323500 8.268672 0.000000 0.000000 0.000000 -4.141288 0.025546 0.994083 1.011982 2.039362 42.377511 0.589376 -3.332834 9.723830 0.000000 0.000000 0.000000 -3.104011 -0.148231 15.424591 2.083425 -0.044033 -22.738819 1.224872 4.132223 27.493238 3.109290 -0.047700 -24.592210 0.000000 0.000000 0.000000 -27.444601 -0.521804 -1.948253 -45.192186 -4.051087 -5.986679 -9.096148 -32.072126 4.193230 0.000000 0.000000 0.000000 20.818721 4.851896 2.108064 50.029593 7.326054 -4.530534 3.066524 43.372580 3.731210 0.000000 0.000000 0.000000 
0.008155 0.945008 0.033255 0.011233 -2.861775 -4.698730 2.038824 -0.892703 -12.519730 -3.942351 0.578752 17.129641 4.459541 10.374447 5.115281 0.000000 0.000000 0.000000 -3.808271 0.690780 -9.220318 4.084379 1.037911 60.558894 -0.335321 -6.156066 13.039144 0.000000 0.000000 0.000000 -3.714474 -0.082179 16.790402 2.554236 -0.110585 -23.613054 0.352456 2.577612 27.704619 3.510984 -0.589583 -23.830544 0.000000 0.000000 0.000000 -27.411951 0.176938 -1.964235 -44.267785 -4.572581 -5.850039 -9.696659 -34.028805 4.740251 0.000000 0.000000 0.000000 20.699419 5.021196 1.882327 50.188563 6.380644 -4.875613 3.869147 44.362629 4.010688 0.000000 0.000000 0.000000 
0.014388 0.950128 0.063710 -0.627937 -1.608481 -4.925028 1.323572 -0.627688 -7.924888 -2.964748 0.260559 14.487131 3.563744 8.421831 3.540254 0.000000 0.000000 0.000000 -4.099233 1.319797 -18.850747 8.006319 -2.688088 71.555377 -2.761484 -9.453198 8.522896 0.000000 0.000000 0.000000 -3.032730 -0.226459 17.462320 3.137454 -0.233055 -23.662355 -1.215424 0.909433 28.035964 2.990470 -0.407670 -24.052122 0.000000 0.000000 0.000000 -26.772450 -0.634383 -1.096039 -43.315333 -5.261395 -5.617994 -9.568868 -36.092425 5.061644 0.000000 0.000000 0.000000 20.831894 3.977648 1.091780 50.283345 6.882203 -4.667309 3.431322 44.046264 3.737186 0.000000 0.000000 0.000000 
0.018922 0.957349 0.093313 -1.850219 -0.864612 -6.375315 1.746712 -0.229381 -3.133091 -2.501002 0.141999 12.148240 3.069031 7.547499 3.677191 0.000000 0.000000 0.000000 -4.382150 1.781115 -26.841991 11.576331 -6.988556 77.742463 -4.432621 -11.934504 4.094142 0.000000 0.000000 0.000000 -1.828140 -0.525221 21.057207 3.226187 -0.154359 -25.424067 -1.945736 -0.701060 28.330483 2.704795 -0.448505 -23.897561 0.000000 0.000000 0.000000 -26.804593 -1.130349 -0.423985 -41.588752 -7.255028 -4.940023 -8.286542 -37.029820 4.806521 0.000000 0.000000 0.000000 22.015996 3.268569 0.365867 48.596428 6.363381 -4.739100 3.933170 42.475581 3.591473 0.000000 0.000000 0.000000 
0.022308 0.962787 0.123866 -2.856042 0.565788 -7.427399 2.400216 0.093530 1.226690 -2.584479 0.153397 9.931404 2.722373 6.934216 3.665897 0.000000 0.000000 0.000000 -4.256922 2.241218 -35.287419 13.586988 -10.101325 78.916524 -5.483799 -13.955258 2.617805 0.000000 0.000000 0.000000 -0.075325 -0.968251 22.554251 2.955888 -0.069752 -25.481194 -2.506815 -2.135107 28.911657 2.771227 -0.514197 -24.933307 0.000000 0.000000 0.000000 -26.122411 -2.089013 0.376905 -41.668303 -8.652001 -4.603934 -7.202516 -39.476045 4.837193 0.000000 0.000000 0.000000 23.173640 2.224183 -0.409050 47.501261 4.902683 -5.220557 5.001727 43.146341 4.008973 0.000000 0.000000 0.000000 
0.024124 0.964233 0.155518 -3.737570 1.481860 -7.819803 3.702663 0.260524 4.555319 -3.022122 0.245202 7.947869 2.648758 6.507553 2.701476 0.000000 0.000000 0.000000 -4.484741 2.374976 -41.105523 14.294721 -10.585656 74.644071 -6.892155 -16.717802 -0.879578 0.000000 0.000000 0.000000 0.821015 -1.266113 23.922460 3.791712 -0.263098 -25.415968 -2.919279 -3.203679 28.448959 2.629622 -0.489142 -25.127411 0.000000 0.000000 0.000000 -26.999004 -1.965790 0.375158 -42.032879 -10.064609 -4.188529 -5.989153 -41.948162 4.796480 0.000000 0.000000 0.000000 24.269964 1.371308 -1.152506 46.638223 2.991265 -5.742381 6.315030 44.379034 4.573993 0.000000 0.000000 0.000000 
0.024970 0.961806 0.189556 -4.318556 2.304457 -7.243803 4.241921 0.370875 7.793920 -3.104790 0.260146 6.894882 3.023809 6.441211 0.362878 0.000000 0.000000 0.000000 -5.111568 2.143206 -44.284675 13.536419 -8.764638 65.474081 -7.386948 -17.695071 -2.926235 0.000000 0.000000 0.000000 1.667937 -1.449777 23.400173 4.144192 -0.335084 -25.336025 -3.033828 -3.957644 28.544460 2.387236 -0.371477 -25.255964 0.000000 0.000000 0.000000 -26.447609 -2.064857 0.522702 -42.688902 -11.888145 -3.639694 -7.359697 -44.409661 5.764946 0.000000 0.000000 0.000000 23.747806 0.350925 -1.766661 47.571376 0.615512 -6.712084 6.879421 45.655022 4.975483 0.000000 0.000000 0.000000 
